<?xml version="1.0" encoding="utf-8"?>
<!-- Generator: Adobe Illustrator 26.0.0, SVG Export Plug-In . SVG Version: 6.00 Build 0)  -->
<svg version="1.1" id="Výchozí" xmlns="http://www.w3.org/2000/svg" xmlns:xlink="http://www.w3.org/1999/xlink" x="0px" y="0px"
	 viewBox="0 0 100 100" style="enable-background:new 0 0 100 100;" xml:space="preserve">
<style type="text/css">
	.st0{fill:#0072B3;}
	.st1{fill:#E7B00F;}
</style>
<path class="st0" d="M98.78,40.99c1.02-3.34,1.42-6.87,1.13-10.42c-0.6-7.34-4.07-14.15-9.65-18.95c-5.59-4.8-12.85-7.19-20.19-6.67
	c-7.35,0.53-14.19,3.93-19.04,9.48c-0.26,0.29-0.63,0.46-1.02,0.46c-0.39,0-0.76-0.17-1.02-0.46c-4.85-5.54-11.69-8.95-19.04-9.48
	c-7.35-0.53-14.6,1.87-20.19,6.67c-5.59,4.8-9.06,11.61-9.65,18.95c-0.29,3.55,0.11,7.08,1.13,10.42H98.78z"/>
<path class="st1" d="M1.22,40.99c1.09,3.57,2.89,6.93,5.34,9.84c12.81,15.22,25.63,30.44,38.44,45.66c1.24,1.47,3.07,2.32,4.99,2.32
	c1.93,0,3.75-0.85,4.99-2.32c12.81-15.22,25.63-30.44,38.44-45.66c2.45-2.91,4.25-6.27,5.34-9.84H1.22z"/>
</svg>
