<?xml version="1.0" encoding="utf-8"?>
<!-- Generator: Adobe Illustrator 26.0.0, SVG Export Plug-In . SVG Version: 6.00 Build 0)  -->
<svg version="1.1" id="artwork" xmlns="http://www.w3.org/2000/svg" xmlns:xlink="http://www.w3.org/1999/xlink" x="0px" y="0px"
	 viewBox="0 0 236.78 303.94" style="enable-background:new 0 0 236.78 303.94;" xml:space="preserve">
<style type="text/css">
	.st0{fill:none;}
</style>
<g>
	<rect x="-34.69" y="-39.37" class="st0" width="306.14" height="382.68"/>
	<g>
		<g>
			<g>
				<g>
					<path d="M115.25,24.07c-2.26,1.71-5.6,4.65-9.62,8.87c-5.87,6.17-11.54,14.9-12.37,19.06c-1.68,8.39-2.18,18.29,0.29,28.61
						c0.62,2.6,2.31,3.89,4.38,3.89h40.97c2.07,0,3.76-1.29,4.38-3.89c2.47-10.33,1.97-20.22,0.28-28.6v0
						c-0.83-4.16-6.5-12.89-12.37-19.06c-4.01-4.21-7.35-7.14-9.6-8.85C119.55,22.54,117.39,22.45,115.25,24.07z"/>
				</g>
				<g>
					<path d="M61.42,83.24c-22.13,0-30.42,19.5-30.42,32.91c0,16.8,11.91,32.46,20.37,36.19c2.75,1.21,4.26,0.46,3.33-2.71
						c-1.74-5.96-1.44-12.43,1.34-16.77c4.12-6.42,9-7.16,14.85-7.67c2.57-0.22,3.55-1.04,3.55-3.59v-12.47
						c0-3.87,0.54-4.74,2.81-7.01c0,0,7.54-7.54,9.4-9.4c1.7-1.7,1-3-0.37-3.83C82.59,86.65,71.31,83.24,61.42,83.24z"/>
				</g>
				<g>
					<path d="M150.46,88.88c-1.37,0.82-2.07,2.12-0.37,3.83c1.86,1.87,9.4,9.4,9.4,9.4c2.27,2.27,2.81,3.15,2.81,7.01v12.47
						c0,2.56,0.98,3.37,3.55,3.59c5.85,0.51,10.74,1.24,14.85,7.67c2.78,4.34,3.08,10.81,1.34,16.77c-0.93,3.17,0.58,3.92,3.33,2.71
						c8.47-3.73,20.37-19.39,20.37-36.19c0-13.4-8.29-32.91-30.42-32.91C165.44,83.24,154.16,86.65,150.46,88.88z"/>
				</g>
				<g>
					<g>
						<path d="M139.07,112.41c-0.17-0.69-0.59-2.79-0.41-3.34c0.18-0.56,0.61-1.67,0.93-2.6c1.65-4.78,0.89-9.79,0.36-10.92
							c-0.1-0.22-0.32-0.25-0.48-0.27c-2.33-0.35-4.25,1.15-6.57,3.94c-0.93,1.12-1.98,1.97-2.24,0.44
							c-0.18-1.01,0.61-3.08-0.33-2.99c-2.19,0.23-3.61,1.48-4.85,3.11c-0.95,1.26-1.03,1.92-2.14,1.95
							c-2.21,0.1-3.25,0.19-4.95,0.6c-1.71,0.41-3.16,1.04-4.19,1.68c-1.28,0.8-2.25,2.01-5.27,2.03
							c-4.83,0.04-10.97,0.15-13.35,0.61c-2.45,0.46-2.79,2.02-1.5,4.19c1.52,2.54,1.98,8,5.05,8.78c0.82,1.73,1.37,3.06,2.17,2.98
							c0.27-0.06,0.55-0.9,0.75-1.68c0.43-1.7,2.08-1.78,3.17-1.83c2.75-0.14,4.88,0.02,6.74,1.06c1.27,0.72,1.89,1.99,1.65,2.49
							c-0.43,0.88-1.34-0.32-6.06,0.63c-2.67,0.54-4.3,1.97-7.74,1.97c-5.12,0-7.63-3.47-8.53-6.56c-0.45-1.55-0.78-3-2.61-1.29
							c-2.35,2.2-2.52,6.38-0.09,8.93c1.61,1.69,3.86,2.57,6.58,2.82c0.83,0.07,2.49,0.11,3.85,0.04c0,0-0.39,1.06,0.2,2
							c0.59,0.94,2.34,1.67,5.13,0.84c4-1.19,7.43-2.3,10.18-0.25c0.5,0.37,1.12,1.06,1.12,1.51c0,0.82-3,3.16-11.41,5.42
							c-10.34,2.78-12.76,9.71-11.72,13.49c0.09,0.35,0.32,0.68,0.58,0.7c0.29,0.02,1.87-0.91,2.78-1.08
							c1.76-0.31,1.02,0.96,0.79,2.57c-0.8,5.74,7.36,12.98,14.56,17.96c3.99,2.76,6.14,3.7,7.14,3.7c1.03,0,3.16-0.76,7.14-3.7
							c11.23-8.3,18.67-19.92,17.47-26.11c-0.68-3.51-2.51-5.65-1.64-6.22c1.01-0.65,3.18,1.03,3.66,0.74c1.13-0.7,1.64-7.2-0.44-14
							C142.6,120.28,140.39,117.7,139.07,112.41z M117.96,110.26c-0.95,0.14-2.13-0.36-1.87-0.71c0.11-0.15,0.41-0.54,0.18-1.01
							c-0.31-0.64-1.3-0.65-1.94-0.25c0.51-1.16,2.17-1.94,3.57-1.94c1.98,0,2.44,1.13,2.32,1.99
							C120.09,109.38,119.19,110.08,117.96,110.26z"/>
					</g>
					<g>
						<path d="M53.91,177.07c-22.01,1.39-37.57-17.15-37.57-35.32c0-6.91,1-10.55,2.84-14.39c1.57-3.28,3.36-5.5,4.44-5.49
							c1.06,0,1.38,1.55,1.55,2.46c4.26,22.28,19.98,35.21,30.67,35.38c3.14,0.05,6.95-0.67,7.29-2.19
							c0.49-2.18-3.26-6.84-3.26-15.58c0-3.54,1.55-9.95,11.35-10.34c8.63-0.34,12.82,7.74,12.82,14.88
							C84.04,161.31,73.13,175.86,53.91,177.07z"/>
					</g>
					<g>
						<path d="M25.12,108.89c1.76-13.01,9.1-22.68,17.25-27.31c13-7.38,25.87-4.59,34.9-2.55c1.34,0.3,2.43,0.11,2.84-0.7
							c0.34-0.67,0.1-1.44-0.96-2.55c-4.25-4.47-14.01-14.19-15.24-15.21c-2.97-2.48-7.89-3.95-11.73-3.95
							c-21.96,0-35.85,16.7-35.85,35.29c0,4.86,1.36,11.15,2.86,14.69c1.39,3.28,2.93,6.19,4.15,6.19
							C24.75,112.78,24.86,110.8,25.12,108.89z"/>
						<path d="M151.32,73.04c-0.62-0.47-0.76-1.39-0.61-2.8c0.93-9.33-0.02-18.51-1.88-22.82c-2.4-5.54-8.14-13.63-12.63-18.33
							c-5.82-6.1-7.92-7.78-10.6-9.81c-0.67-0.51-2.12-1.33-2.12-2.01c0-0.75,1.12-1.53,2.47-2.15c2.52-1.17,6.21-2.76,12.95-3.34
							c8.02-0.69,19.44,1.04,28.06,12.06c4.87,6.22,5.55,13.75,5.55,18.84c0,6.06-0.97,11.52-3.85,14.66
							c-4.27,4.66-13.41,13.76-14.61,14.84C153.45,72.71,152.12,73.65,151.32,73.04z"/>
						<path d="M85.46,73.04c0.62-0.47,0.76-1.39,0.61-2.8c-0.93-9.33,0.02-18.51,1.88-22.82c2.4-5.54,8.14-13.63,12.63-18.33
							c5.82-6.1,7.92-7.78,10.6-9.81c0.67-0.51,2.12-1.33,2.12-2.01c0-0.75-1.12-1.53-2.47-2.15c-2.52-1.17-6.21-2.76-12.95-3.34
							c-8.02-0.69-19.44,1.04-28.06,12.06c-4.87,6.22-5.55,13.75-5.55,18.84c0,6.06,0.97,11.52,3.85,14.66
							c4.27,4.66,13.41,13.76,14.61,14.84C83.32,72.71,84.65,73.65,85.46,73.04z"/>
					</g>
					<g>
						<path d="M182.86,177.07c22.01,1.39,37.57-17.15,37.57-35.32c0-6.91-1-10.55-2.84-14.39c-1.57-3.28-3.36-5.5-4.44-5.49
							c-1.06,0-1.38,1.55-1.55,2.46c-4.26,22.28-19.98,35.21-30.67,35.38c-3.14,0.05-6.95-0.67-7.29-2.19
							c-0.49-2.18,3.26-6.84,3.26-15.58c0-3.54-1.55-9.95-11.35-10.34c-8.63-0.34-12.82,7.74-12.82,14.88
							C152.73,161.31,163.65,175.86,182.86,177.07z"/>
						<path d="M211.66,108.89c-1.76-13.01-9.1-22.68-17.25-27.31c-13-7.38-25.87-4.59-34.9-2.55c-1.34,0.3-2.43,0.11-2.85-0.7
							c-0.34-0.67-0.1-1.44,0.96-2.55c4.25-4.47,14.01-14.19,15.24-15.21c2.97-2.48,7.89-3.95,11.73-3.95
							c21.96,0,35.85,16.7,35.85,35.29c0,4.86-1.36,11.15-2.86,14.69c-1.39,3.28-2.93,6.19-4.15,6.19
							C212.03,112.78,211.92,110.8,211.66,108.89z"/>
						<path d="M135.54,183.87c4.94-3.72,7.6-6.22,11.73-10.44c1.9-1.95,4.08-2.15,6.37,0.05c3.18,3.07,7.08,5.57,12.8,6.05
							c2.29,0.19,3.52-0.54,5.13,0.24c0.82,0.4,1.61,1.51,1.67,3.4c0.23,7.55-3.38,16.29-14.31,18.25
							c-7.09,1.27-14.21-0.88-17.73-4.18c-2.41-2.26-5.07-4.77-6.61-6.85C132.97,188.21,133.04,185.75,135.54,183.87z"/>
						<path d="M101.24,183.87c-4.94-3.72-7.6-6.22-11.73-10.44c-1.9-1.95-4.08-2.15-6.37,0.05c-3.18,3.07-7.08,5.57-12.8,6.05
							c-2.29,0.19-3.52-0.54-5.13,0.24c-0.82,0.4-1.61,1.51-1.67,3.4c-0.23,7.55,3.38,16.29,14.31,18.25
							c7.09,1.27,14.21-0.88,17.73-4.18c2.41-2.26,5.07-4.77,6.61-6.85C103.81,188.21,103.74,185.75,101.24,183.87z"/>
					</g>
					<g>
						<path d="M118.39,192.54c2.82,0,5.02-1.72,6.93-1.97c1.61-0.21,2.65,0.29,4.13,1.77c2.14,2.15,5.22,5.5,7.27,8.02
							c1.48,1.81,3.48,4.84,0.73,11.89c-3.38,8.66-15.51,20.09-19.06,20.09s-15.69-11.42-19.06-20.09
							c-2.75-7.05-0.75-10.08,0.73-11.89c2.05-2.51,5.13-5.87,7.27-8.02c1.48-1.48,2.52-1.98,4.13-1.77
							C113.36,190.82,115.57,192.54,118.39,192.54z"/>
					</g>
				</g>
			</g>
		</g>
		<g>
			<path d="M46.61,262.39c-5.14,0-5.96,2.04-5.96,3.26c0,5.86,14.92,4.17,14.92,15.38c0,7.43-6.42,11-14.67,11
				c-7.23,0-9.06-3.56-9.06-6.72c0-0.61,0-1.07,0.15-1.68c0.15-0.51,0.51-0.76,1.22-0.41c2.65,1.27,4.99,1.78,7.38,1.78
				c3.77,0,6.72-1.07,6.72-3.67c0-5.91-14.92-4.68-14.92-15.63c0-6.93,4.94-10.34,14.67-10.34c1.63,0,4.23,0.2,6.01,0.66
				c0.46,0.1,0.66,0.46,0.61,0.87l-0.81,5.45c-0.1,0.61-0.41,0.66-0.97,0.56C50.12,262.54,48.03,262.39,46.61,262.39z"/>
			<path d="M69.59,255.62c2.39,0,4.18,1.78,4.18,4.17v12.17l11.15-15.07c0.46-0.66,1.17-1.02,2.14-1.02h6.26
				c0.92,0,1.37,0.66,0.81,1.43l-11.46,15.12c-0.15,0.2-0.15,0.41,0,0.61c4.58,5.91,10.69,14.56,13.09,16.8
				c0.46,0.41,0.31,0.76,0,1.02c-0.76,0.61-2.19,1.43-4.12,1.43c-3.82,0-5.86-1.58-7.99-4.63l-9.88-14.05v17.16
				c0,0.41-0.36,0.76-0.76,0.76h-6.47c-0.41,0-0.76-0.36-0.76-0.76v-28.16c-2.7-0.41-3.92-2.09-4.23-5.86
				c-0.05-0.61,0.36-0.87,0.97-0.87C65.01,255.87,67.09,255.62,69.59,255.62z"/>
			<path d="M119.03,255.62c5.09,0,6.31,1.73,7.38,4.68l9.16,25.71c0.97,2.65,1.73,3.82,2.24,4.53c0.15,0.2,0.15,0.51-0.05,0.66
				c-0.66,0.51-1.94,1.07-4.02,1.07c-3.51,0-5.6-1.27-6.62-4.28l-1.12-3.36c-0.15-0.51-0.41-0.66-0.92-0.66H111.7
				c-0.46,0-0.66,0.2-0.81,0.66l-2.09,6.16c-0.15,0.41-0.41,0.71-1.02,0.71H101c-0.61,0-1.02-0.56-0.81-1.17l9.83-27.75
				c-2.7-0.41-3.92-2.09-4.23-5.86c-0.05-0.61,0.36-0.87,0.97-0.87C110.98,255.87,114.8,255.62,119.03,255.62z M123.76,276.29
				l-4.02-12.78c-0.25-0.81-0.61-1.17-1.27-1.17h-0.66l-4.48,14c-0.1,0.36,0.05,0.56,0.46,0.56h9.57
				C123.76,276.9,123.87,276.7,123.76,276.29z"/>
			<path d="M140.14,256.74c-0.05-0.61,0.36-0.87,0.97-0.87c2.7-0.05,4.99-0.25,7.03-0.25c2.5,0,4.23,1.37,4.23,4.23v17.82
				c0,4.79,2.44,7.28,6.77,7.28c4.33,0,6.77-2.5,6.77-7.28v-21.03c0-0.41,0.36-0.76,0.76-0.76h6.47c0.41,0,0.76,0.36,0.76,0.76
				v22.71c0,8.1-5.45,12.63-14.77,12.63c-9.73,0-14.77-4.12-14.77-12.63v-16.75C141.66,262.19,140.44,260.51,140.14,256.74z"/>
			<path d="M198.56,263.46v16.85c0,3.77,0.81,4.68,2.95,4.99c0.56,0.1,1.53,0.1,2.09,0.05c0.76-0.1,1.02,0.36,0.87,1.27
				c-0.41,2.49-2.8,5.4-6.98,5.4c-4.94,0-6.93-2.6-6.93-9.27v-19.3c0-0.31-0.2-0.51-0.51-0.51h-8.15c-0.41,0-0.76-0.36-0.76-0.76
				v-5.55c0-0.41,0.36-0.76,0.76-0.76h25.31c0.41,0,0.76,0.36,0.76,0.76v5.55c0,0.41-0.36,0.76-0.76,0.76h-8.15
				C198.76,262.95,198.56,263.15,198.56,263.46z"/>
		</g>
	</g>
</g>
</svg>
